<svg xmlns="http://www.w3.org/2000/svg" width="398" height="402" viewBox="0 0 398 402">
  <g id="Logo" transform="translate(-761 -339)">
    <rect id="Rectangle_1" data-name="Rectangle 1" width="398" height="402" transform="translate(761 339)" fill="#fbb824"/>
    <rect id="Rectangle_2" data-name="Rectangle 2" width="19" height="18" transform="translate(888 410)" fill="#6d898b"/>
    <rect id="Rectangle_3" data-name="Rectangle 3" width="19" height="18" transform="translate(907 392)" fill="#6d898b"/>
    <rect id="Rectangle_4" data-name="Rectangle 4" width="19" height="18" transform="translate(926 410)" fill="#6d898b"/>
    <rect id="Rectangle_5" data-name="Rectangle 5" width="19" height="18" transform="translate(981 428)" fill="#6d898b"/>
    <rect id="Rectangle_6" data-name="Rectangle 6" width="19" height="18" transform="translate(997 410)" fill="#6d898b"/>
    <rect id="Rectangle_7" data-name="Rectangle 7" width="19" height="18" transform="translate(1016 428)" fill="#6d898b"/>
    <rect id="Rectangle_8" data-name="Rectangle 8" width="257" height="183" transform="translate(833 446)" fill="#fff"/>
    <rect id="Rectangle_9" data-name="Rectangle 9" width="184" height="93" transform="translate(870 482)" fill="#7a67a0"/>
    <rect id="Rectangle_10" data-name="Rectangle 10" width="19" height="57" transform="translate(907 499)" fill="#020711"/>
    <rect id="Rectangle_11" data-name="Rectangle 11" width="19" height="57" transform="translate(997 499)" fill="#020711"/>
    <rect id="Rectangle_12" data-name="Rectangle 12" width="18" height="19" transform="translate(870 592)" fill="#7868a0"/>
    <rect id="Rectangle_13" data-name="Rectangle 13" width="71" height="19" transform="translate(926 592)" fill="#7868a0"/>
    <rect id="Rectangle_14" data-name="Rectangle 14" width="18" height="19" transform="translate(1035 592)" fill="#7868a0"/>
    <rect id="Rectangle_15" data-name="Rectangle 15" width="257" height="20" transform="translate(833 629)" fill="#6c898d"/>
    <rect id="Rectangle_16" data-name="Rectangle 16" width="221" height="18" transform="translate(851 649)" fill="#6c898d"/>
  </g>
</svg>
